<svg class="icon" width="200" height="200" viewBox="0 0 1024 1024" xmlns="http://www.w3.org/2000/svg"><path fill="#f55" d="M981.127 192.876H730.762v-12.948C727.91 79.871 636.41 0 522.82 0 409.816 0 318.242 79.871 315.974 179.93v12.946H43.008c-24.87 0-42.935 16.31-42.935 37.083 0 20.845 18.066 37.156 42.935 37.156h106.275v577.53c0 142.261 20.918 179.344 143.505 179.344h438.56c123.17 0 143.505-35.986 143.505-179.344v-577.53h106.274c24.87 0 42.935-16.31 42.935-37.156 0-20.187-19.748-37.083-42.935-37.083zM520.552 67.509c68.388 0 125.44 47.177 128.291 109.055l.512 14.043H391.164l1.097-14.628c5.632-60.708 61.585-108.47 128.291-108.47zM297.907 955.967c-61.074 0-74.605-29.257-74.605-111.907V267.115h577.53V855.91c0 39.862-1.098 53.905-8.485 69.12-10.751 21.356-31.597 30.939-65.535 30.939H297.907zm113.005-548.858c-28.234 0-48.567 25.307-48.567 54.564v310.415c0 29.77 20.333 54.49 48.567 54.49s48.565-25.234 48.565-54.49V461.673c0-29.843-23.113-54.564-48.565-54.564zm202.31 0c-28.232 0-48.566 25.307-48.566 54.564v310.415c0 29.77 23.113 54.49 48.566 54.49 28.233 0 48.567-25.234 48.567-54.49V461.673a49.37 49.37 0 00-48.567-54.564z"/></svg>