<svg class="icon" width="200" height="200" viewBox="0 0 1024 1024" xmlns="http://www.w3.org/2000/svg"><path fill="#bbb" d="M933.506 951.862H90.456a36.069 36.069 0 100 72.138h843.05a36.069 36.069 0 100-72.138zM149.368 851.751a36.069 36.069 0 007.915-.882l273.522-61.547a36.069 36.069 0 0017.584-9.689L752.72 475.332 957.902 270.15a36.069 36.069 0 000-51.008L749.324 10.564a36.069 36.069 0 00-50.867-.14l-503.302 497.86a36.069 36.069 0 00-9.638 16.763L114.38 806.795a36.069 36.069 0 0034.977 44.896zM723.675 86.94l157.711 157.71-154.154 154.156-158.553-158.553zM253.005 552.5L517.402 291l158.823 158.813-271.418 271.419L198.712 767.6z"/></svg>